<?xml version="1.0" standalone="no"?>
<!DOCTYPE svg PUBLIC "-//W3C//DTD SVG 20010904//EN"
 "http://www.w3.org/TR/2001/REC-SVG-20010904/DTD/svg10.dtd">
<svg version="1.0" xmlns="http://www.w3.org/2000/svg"
 width="1280.000000pt" height="682.000000pt" viewBox="0 0 1280.000000 682.000000"
 preserveAspectRatio="xMidYMid meet">
<metadata>
Created by potrace 1.15, written by Peter Selinger 2001-2017
</metadata>
<g transform="translate(0.000000,682.000000) scale(0.100000,-0.100000)"
fill="#000000" stroke="none">
<path d="M6440 6810 c-466 -35 -1029 -127 -1455 -238 -528 -137 -673 -173
-820 -206 -261 -57 -732 -150 -1170 -230 -451 -82 -552 -110 -765 -212 -328
-157 -600 -418 -746 -716 l-28 -58 -86 0 c-101 0 -321 -31 -429 -60 -451 -122
-749 -391 -875 -789 -97 -308 -84 -732 35 -1095 343 -1051 1543 -1736 3041
-1736 l237 0 3 -637 c3 -600 4 -640 22 -673 26 -49 84 -108 131 -133 39 -22
48 -22 594 -25 622 -3 612 -4 694 68 57 51 85 110 96 207 13 122 64 198 161
242 45 20 57 21 1720 21 1124 0 1687 -4 1712 -10 101 -28 173 -128 188 -258
10 -93 32 -142 87 -193 82 -78 43 -74 662 -77 622 -3 612 -4 694 68 67 59 89
115 95 238 2 56 6 102 7 102 1 0 63 -11 136 -25 154 -29 419 -68 594 -87 162
-18 689 -17 815 0 361 51 593 146 768 316 114 110 181 230 219 389 22 91 24
318 4 396 -102 398 -479 650 -1161 775 -485 89 -1160 107 -1912 50 -117 -8
-238 -16 -268 -17 l-55 -2 -41 73 c-78 136 -162 375 -205 582 -68 329 -73 434
-74 1555 l0 990 35 -3 c74 -6 208 -34 285 -58 166 -53 275 -140 310 -244 15
-44 16 -71 11 -154 -18 -266 -76 -405 -205 -491 -215 -143 -353 -361 -338
-537 11 -134 66 -218 254 -389 541 -491 1104 -873 1598 -1084 152 -65 215 -78
370 -78 212 -1 352 50 475 173 114 114 166 242 195 485 40 327 110 629 185
797 56 123 79 248 87 453 28 802 -361 1425 -1062 1703 -166 66 -255 88 -610
152 -761 137 -1354 263 -1810 387 -534 145 -975 226 -1510 279 -177 18 -731
26 -895 14z m-1227 -892 c212 -40 141 -163 -121 -214 -188 -36 -389 2 -416 79
-11 31 9 59 64 87 30 15 161 50 240 64 35 6 163 -3 233 -16z m3520 -4 c38 -8
93 -24 124 -37 194 -77 43 -200 -227 -184 -264 16 -440 131 -305 199 90 46
253 55 408 22z m-1603 -379 c462 -33 1115 -122 1178 -161 28 -18 29 -64 2 -89
-22 -20 -8 -21 -275 24 -330 56 -786 104 -1115 117 -312 12 -920 -43 -1403
-128 -205 -36 -227 -34 -227 27 0 25 6 38 23 49 61 39 708 128 1162 161 249
17 404 17 655 0z m-2583 -1280 c-3 -845 -6 -997 -21 -1105 -45 -340 -110 -580
-217 -806 -121 -255 -335 -480 -538 -565 -62 -26 -97 -34 -261 -60 -105 -17
-601 -14 -785 4 -509 52 -916 167 -1310 371 -770 398 -1205 1069 -1172 1806
24 523 278 836 778 959 119 29 325 59 335 48 3 -3 -4 -43 -15 -89 -41 -175
-53 -309 -48 -528 6 -235 24 -338 81 -460 76 -165 145 -461 191 -826 30 -236
75 -346 189 -460 80 -80 153 -122 273 -156 106 -30 302 -30 413 0 337 91 961
468 1460 882 416 345 522 463 551 612 34 179 -95 404 -323 565 -88 62 -107 83
-143 159 -46 97 -68 215 -69 364 -1 154 5 172 81 246 85 83 292 162 478 181
l70 8 3 -85 c2 -47 1 -526 -1 -1065z m2513 881 c611 -76 1106 -387 1325 -831
148 -301 148 -627 0 -931 -212 -437 -669 -734 -1275 -830 -144 -23 -456 -23
-605 0 -691 107 -1211 504 -1352 1034 -23 84 -26 118 -27 252 -1 158 5 199 46
330 100 315 371 606 735 789 193 96 460 170 703 194 95 10 348 5 450 -7z
m-4149 -687 c44 -22 109 -92 109 -118 0 -45 -149 -171 -202 -171 -55 0 -85 25
-97 80 -20 94 -9 170 31 207 39 36 90 36 159 2z m7941 9 c33 -16 50 -66 49
-142 0 -111 -18 -142 -85 -153 -28 -4 -45 0 -84 26 -81 51 -132 104 -132 135
0 53 62 111 149 142 35 12 69 10 103 -8z m-7626 -351 c44 -49 84 -140 84 -190
0 -98 -117 -227 -205 -227 -72 0 -95 24 -148 153 -60 149 -61 177 -5 230 60
57 132 89 188 83 38 -3 51 -11 86 -49z m7353 27 c66 -33 117 -82 127 -119 13
-53 -80 -281 -125 -308 -64 -38 -149 -10 -215 70 -67 80 -73 157 -20 262 60
119 128 147 233 95z m-6310 -50 c22 -16 23 -22 19 -86 -9 -124 -43 -175 -257
-388 -492 -490 -1105 -894 -1554 -1024 -205 -60 -453 -81 -510 -43 -49 32 -47
105 3 132 14 7 79 30 145 50 296 91 693 279 945 448 140 94 585 446 913 721
164 138 252 206 267 206 3 0 16 -7 29 -16z m5146 -3 c6 -3 104 -84 218 -179
472 -394 829 -671 1008 -783 218 -136 619 -320 854 -393 147 -46 157 -50 178
-78 37 -49 -1 -111 -75 -123 -54 -9 -203 3 -319 26 -492 98 -1190 541 -1740
1106 -156 160 -190 211 -209 314 -19 101 19 150 85 110z m1480 -2071 c772 -34
1267 -171 1507 -417 121 -123 166 -246 155 -422 -21 -345 -246 -541 -717 -626
-125 -22 -543 -32 -735 -16 -191 15 -486 56 -690 94 l-170 32 -5 440 c-6 490
-4 475 -77 556 -47 52 -94 76 -179 89 -120 19 -242 81 -361 184 l-53 44 38 6
c58 8 357 27 567 35 287 12 477 12 720 1z m-1537 -98 l102 -87 -1325 -3 c-729
-1 -1922 -1 -2651 0 l-1327 3 102 88 103 87 2446 0 2447 0 103 -88z m529 -302
l106 -80 -3183 0 c-1751 0 -3181 3 -3177 6 3 4 50 39 104 80 l98 74 2973 0
2973 0 106 -80z"/>
<path d="M6610 4980 c-402 -44 -754 -198 -1002 -438 -157 -152 -254 -314 -300
-498 -27 -112 -30 -295 -5 -396 88 -357 375 -659 785 -824 228 -91 460 -134
725 -134 315 1 556 54 822 184 379 186 621 472 686 814 17 90 6 299 -20 387
-132 443 -582 786 -1161 884 -144 25 -400 35 -530 21z m327 -236 c145 -69 144
-219 -2 -297 -61 -33 -193 -31 -260 4 -107 54 -135 163 -64 243 74 85 210 105
326 50z m-773 -198 c94 -28 146 -89 146 -169 0 -121 -165 -206 -313 -163 -91
26 -157 97 -157 166 0 126 170 212 324 166z m1502 -14 c184 -95 123 -302 -97
-328 -148 -17 -286 88 -264 202 10 58 75 119 155 145 42 14 164 3 206 -19z
m-721 -467 c151 -49 231 -191 176 -310 -76 -164 -359 -220 -532 -105 -70 46
-102 99 -107 174 -3 49 0 71 16 103 68 133 270 196 447 138z m-1069 -79 c99
-45 136 -133 92 -216 -20 -36 -37 -52 -87 -77 -53 -28 -74 -33 -131 -33 -57 0
-78 5 -131 33 -52 26 -67 40 -87 79 -18 36 -23 56 -18 82 26 136 207 202 362
132z m2122 -2 c158 -77 127 -267 -52 -315 -23 -6 -71 -9 -108 -7 -136 10 -230
108 -204 212 8 33 61 93 98 112 76 40 181 39 266 -2z m-1803 -538 c28 -12 65
-39 83 -60 27 -31 32 -44 32 -88 0 -93 -66 -157 -184 -179 -98 -18 -216 25
-262 96 -56 86 -3 199 113 241 62 22 160 17 218 -10z m1447 8 c57 -19 115 -75
130 -125 9 -32 8 -46 -6 -82 -20 -54 -46 -79 -111 -108 -138 -62 -327 8 -351
130 -9 44 20 116 60 146 71 54 187 70 278 39z m-705 -230 c189 -91 116 -306
-108 -322 -107 -7 -202 36 -240 109 -84 165 151 308 348 213z"/>
</g>
</svg>
